<?xml version="1.0" encoding="UTF-8"?>
<!DOCTYPE svg PUBLIC "-//W3C//DTD SVG 1.1//EN" "http://www.w3.org/Graphics/SVG/1.1/DTD/svg11.dtd">
<svg width="1672px" height="909px" viewBox="0 0 1672 909" version="1.1" xmlns="http://www.w3.org/2000/svg" xmlns:xlink="http://www.w3.org/1999/xlink">
  <g>
    <line stroke="#a6caf0" stroke-width="1" stroke-linecap="round" stroke-linejoin="round" x1="1283.5" y1="20.5" x2="1332.5" y2="20.5" />
    <text x="1283" y="16" font-family="Times New Roman" font-size="11" fill="#000000">f(n)=1</text>
    <line stroke="#ff00ff" stroke-width="1" stroke-linecap="round" stroke-linejoin="round" x1="1283.5" y1="40.5" x2="1332.5" y2="40.5" />
    <text x="1283" y="36" font-family="Times New Roman" font-size="11" fill="#000000">log(log(n))</text>
    <line stroke="#0000ff" stroke-width="1" stroke-linecap="round" stroke-linejoin="round" x1="1283.5" y1="60.5" x2="1332.5" y2="60.5" />
    <text x="1283" y="56" font-family="Times New Roman" font-size="11" fill="#000000">log(n)</text>
    <line stroke="#800000" stroke-width="1" stroke-linecap="round" stroke-linejoin="round" x1="1283.5" y1="80.5" x2="1332.5" y2="80.5" />
    <text x="1283" y="76" font-family="Times New Roman" font-size="11" fill="#000000">n^1/2</text>
    <line stroke="#808080" stroke-width="1" stroke-linecap="round" stroke-linejoin="round" x1="1283.5" y1="100.5" x2="1332.5" y2="100.5" />
    <text x="1283" y="96" font-family="Times New Roman" font-size="11" fill="#000000">n</text>
    <line stroke="#00ff00" stroke-width="1" stroke-linecap="round" stroke-linejoin="round" x1="1283.5" y1="120.5" x2="1332.5" y2="120.5" />
    <text x="1283" y="116" font-family="Times New Roman" font-size="11" fill="#000000">nlog(n)</text>
    <line stroke="#ff0000" stroke-width="1" stroke-linecap="round" stroke-linejoin="round" x1="1283.5" y1="140.5" x2="1332.5" y2="140.5" />
    <text x="1283" y="136" font-family="Times New Roman" font-size="11" fill="#000000">n^2</text>
    <line stroke="#800080" stroke-width="1" stroke-linecap="round" stroke-linejoin="round" x1="1283.5" y1="160.5" x2="1332.5" y2="160.5" />
    <text x="1283" y="156" font-family="Times New Roman" font-size="11" fill="#000000">n^3</text>
    <line stroke="#008080" stroke-width="1" stroke-linecap="round" stroke-linejoin="round" x1="1283.5" y1="180.5" x2="1332.5" y2="180.5" />
    <text x="1283" y="176" font-family="Times New Roman" font-size="11" fill="#000000">2^n</text>
    <line stroke="#000000" stroke-width="1" stroke-linecap="round" stroke-linejoin="round" x1="1283.5" y1="200.5" x2="1332.5" y2="200.5" />
    <text x="1283" y="196" font-family="Times New Roman" font-size="11" fill="#000000">3^n</text>
    <line stroke="#ff0000" stroke-width="1" stroke-linecap="round" stroke-linejoin="round" x1="1283.5" y1="220.5" x2="1332.5" y2="220.5" />
    <text x="1283" y="216" font-family="Times New Roman" font-size="11" fill="#000000">n!</text>
    <line stroke="#9966ff" stroke-width="1" stroke-linecap="round" stroke-linejoin="round" x1="1283.5" y1="240.5" x2="1332.5" y2="240.5" />
    <text x="1283" y="236" font-family="Times New Roman" font-size="11" fill="#000000">n^n</text>
    <rect stroke="#000000" stroke-width="1" stroke-linecap="round" stroke-linejoin="round" fill="none" x="1278.5" y="0.5" width="59" height="249" />
  </g>
  <clipPath id="clippath1">
    <path d="M-1,-1 H1672 V908H-1 z M1277,-1 H1339 V251 H1277 z" clip-rule="evenodd" />
  </clipPath>
  <g clip-path="url(#clippath1)">
    <text x="59" y="610" font-family="Times New Roman" font-size="13" fill="#000000">-3</text>
    <text x="124" y="610" font-family="Times New Roman" font-size="13" fill="#000000">-2</text>
    <text x="188" y="610" font-family="Times New Roman" font-size="13" fill="#000000">-1</text>
    <text x="320" y="610" font-family="Times New Roman" font-size="13" fill="#000000">1</text>
    <text x="385" y="610" font-family="Times New Roman" font-size="13" fill="#000000">2</text>
    <text x="450" y="610" font-family="Times New Roman" font-size="13" fill="#000000">3</text>
    <text x="515" y="610" font-family="Times New Roman" font-size="13" fill="#000000">4</text>
    <text x="580" y="610" font-family="Times New Roman" font-size="13" fill="#000000">5</text>
    <text x="645" y="610" font-family="Times New Roman" font-size="13" fill="#000000">6</text>
    <text x="710" y="610" font-family="Times New Roman" font-size="13" fill="#000000">7</text>
    <text x="775" y="610" font-family="Times New Roman" font-size="13" fill="#000000">8</text>
    <text x="840" y="610" font-family="Times New Roman" font-size="13" fill="#000000">9</text>
    <text x="902" y="610" font-family="Times New Roman" font-size="13" fill="#000000">10</text>
    <text x="967" y="610" font-family="Times New Roman" font-size="13" fill="#000000">11</text>
    <text x="1032" y="610" font-family="Times New Roman" font-size="13" fill="#000000">12</text>
    <text x="1096" y="610" font-family="Times New Roman" font-size="13" fill="#000000">13</text>
    <text x="1161" y="610" font-family="Times New Roman" font-size="13" fill="#000000">14</text>
    <text x="1226" y="610" font-family="Times New Roman" font-size="13" fill="#000000">15</text>
    <text x="1291" y="610" font-family="Times New Roman" font-size="13" fill="#000000">16</text>
    <text x="241" y="694" font-family="Times New Roman" font-size="13" fill="#000000">-4</text>
    <text x="241" y="647" font-family="Times New Roman" font-size="13" fill="#000000">-2</text>
    <text x="245" y="551" font-family="Times New Roman" font-size="13" fill="#000000">2</text>
    <text x="245" y="504" font-family="Times New Roman" font-size="13" fill="#000000">4</text>
    <text x="245" y="456" font-family="Times New Roman" font-size="13" fill="#000000">6</text>
    <text x="245" y="408" font-family="Times New Roman" font-size="13" fill="#000000">8</text>
    <text x="239" y="360" font-family="Times New Roman" font-size="13" fill="#000000">10</text>
    <text x="239" y="313" font-family="Times New Roman" font-size="13" fill="#000000">12</text>
    <text x="239" y="265" font-family="Times New Roman" font-size="13" fill="#000000">14</text>
    <text x="239" y="217" font-family="Times New Roman" font-size="13" fill="#000000">16</text>
    <text x="239" y="170" font-family="Times New Roman" font-size="13" fill="#000000">18</text>
    <text x="239" y="122" font-family="Times New Roman" font-size="13" fill="#000000">20</text>
    <text x="239" y="74" font-family="Times New Roman" font-size="13" fill="#000000">22</text>
    <text x="239" y="27" font-family="Times New Roman" font-size="13" fill="#000000">24</text>
    <text x="1327" y="583" font-family="Times New Roman" font-size="16" font-weight="700" fill="#000000">x</text>
    <text x="270" y="13" font-family="Times New Roman" font-size="16" font-weight="700" fill="#000000">y</text>
    <line stroke="#0000ff" stroke-width="2" stroke-linecap="butt" stroke-linejoin="bevel" x1="0" y1="593" x2="1333" y2="593" />
    <polygon stroke="#0000ff" stroke-width="1" stroke-linecap="round" stroke-linejoin="round" fill="#0000ff" points="1332.5,587.5 1337.5,592.5 1337.5,593.5 1332.5,598.5 " />
    <line stroke="#0000ff" stroke-width="1" stroke-linecap="round" stroke-linejoin="round" x1="64.5" y1="598.5" x2="64.5" y2="587.5" />
    <line stroke="#0000ff" stroke-width="1" stroke-linecap="round" stroke-linejoin="round" x1="129.5" y1="598.5" x2="129.5" y2="587.5" />
    <line stroke="#0000ff" stroke-width="1" stroke-linecap="round" stroke-linejoin="round" x1="193.5" y1="598.5" x2="193.5" y2="587.5" />
    <line stroke="#0000ff" stroke-width="1" stroke-linecap="round" stroke-linejoin="round" x1="323.5" y1="598.5" x2="323.5" y2="587.5" />
    <line stroke="#0000ff" stroke-width="1" stroke-linecap="round" stroke-linejoin="round" x1="388.5" y1="598.5" x2="388.5" y2="587.5" />
    <line stroke="#0000ff" stroke-width="1" stroke-linecap="round" stroke-linejoin="round" x1="453.5" y1="598.5" x2="453.5" y2="587.5" />
    <line stroke="#0000ff" stroke-width="1" stroke-linecap="round" stroke-linejoin="round" x1="518.5" y1="598.5" x2="518.5" y2="587.5" />
    <line stroke="#0000ff" stroke-width="1" stroke-linecap="round" stroke-linejoin="round" x1="583.5" y1="598.5" x2="583.5" y2="587.5" />
    <line stroke="#0000ff" stroke-width="1" stroke-linecap="round" stroke-linejoin="round" x1="648.5" y1="598.5" x2="648.5" y2="587.5" />
    <line stroke="#0000ff" stroke-width="1" stroke-linecap="round" stroke-linejoin="round" x1="713.5" y1="598.5" x2="713.5" y2="587.5" />
    <line stroke="#0000ff" stroke-width="1" stroke-linecap="round" stroke-linejoin="round" x1="778.5" y1="598.5" x2="778.5" y2="587.5" />
    <line stroke="#0000ff" stroke-width="1" stroke-linecap="round" stroke-linejoin="round" x1="843.5" y1="598.5" x2="843.5" y2="587.5" />
    <line stroke="#0000ff" stroke-width="1" stroke-linecap="round" stroke-linejoin="round" x1="908.5" y1="598.5" x2="908.5" y2="587.5" />
    <line stroke="#0000ff" stroke-width="1" stroke-linecap="round" stroke-linejoin="round" x1="973.5" y1="598.5" x2="973.5" y2="587.5" />
    <line stroke="#0000ff" stroke-width="1" stroke-linecap="round" stroke-linejoin="round" x1="1038.5" y1="598.5" x2="1038.5" y2="587.5" />
    <line stroke="#0000ff" stroke-width="1" stroke-linecap="round" stroke-linejoin="round" x1="1102.5" y1="598.5" x2="1102.5" y2="587.5" />
    <line stroke="#0000ff" stroke-width="1" stroke-linecap="round" stroke-linejoin="round" x1="1167.5" y1="598.5" x2="1167.5" y2="587.5" />
    <line stroke="#0000ff" stroke-width="1" stroke-linecap="round" stroke-linejoin="round" x1="1232.5" y1="598.5" x2="1232.5" y2="587.5" />
    <line stroke="#0000ff" stroke-width="1" stroke-linecap="round" stroke-linejoin="round" x1="1297.5" y1="598.5" x2="1297.5" y2="587.5" />
    <line stroke="#0000ff" stroke-width="2" stroke-linecap="butt" stroke-linejoin="bevel" x1="258" y1="3" x2="258" y2="726" />
    <polygon stroke="#0000ff" stroke-width="1" stroke-linecap="round" stroke-linejoin="round" fill="#0000ff" points="252.5,5.5 257.5,0.5 258.5,0.5 263.5,5.5 " />
    <line stroke="#0000ff" stroke-width="1" stroke-linecap="round" stroke-linejoin="round" x1="252.5" y1="688.5" x2="263.5" y2="688.5" />
    <line stroke="#0000ff" stroke-width="1" stroke-linecap="round" stroke-linejoin="round" x1="252.5" y1="641.5" x2="263.5" y2="641.5" />
    <line stroke="#0000ff" stroke-width="1" stroke-linecap="round" stroke-linejoin="round" x1="252.5" y1="545.5" x2="263.5" y2="545.5" />
    <line stroke="#0000ff" stroke-width="1" stroke-linecap="round" stroke-linejoin="round" x1="252.5" y1="498.5" x2="263.5" y2="498.5" />
    <line stroke="#0000ff" stroke-width="1" stroke-linecap="round" stroke-linejoin="round" x1="252.5" y1="450.5" x2="263.5" y2="450.5" />
    <line stroke="#0000ff" stroke-width="1" stroke-linecap="round" stroke-linejoin="round" x1="252.5" y1="402.5" x2="263.5" y2="402.5" />
    <line stroke="#0000ff" stroke-width="1" stroke-linecap="round" stroke-linejoin="round" x1="252.5" y1="354.5" x2="263.5" y2="354.5" />
    <line stroke="#0000ff" stroke-width="1" stroke-linecap="round" stroke-linejoin="round" x1="252.5" y1="307.5" x2="263.5" y2="307.5" />
    <line stroke="#0000ff" stroke-width="1" stroke-linecap="round" stroke-linejoin="round" x1="252.5" y1="259.5" x2="263.5" y2="259.5" />
    <line stroke="#0000ff" stroke-width="1" stroke-linecap="round" stroke-linejoin="round" x1="252.5" y1="211.5" x2="263.5" y2="211.5" />
    <line stroke="#0000ff" stroke-width="1" stroke-linecap="round" stroke-linejoin="round" x1="252.5" y1="164.5" x2="263.5" y2="164.5" />
    <line stroke="#0000ff" stroke-width="1" stroke-linecap="round" stroke-linejoin="round" x1="252.5" y1="116.5" x2="263.5" y2="116.5" />
    <line stroke="#0000ff" stroke-width="1" stroke-linecap="round" stroke-linejoin="round" x1="252.5" y1="68.5" x2="263.5" y2="68.5" />
    <line stroke="#0000ff" stroke-width="1" stroke-linecap="round" stroke-linejoin="round" x1="252.5" y1="21.5" x2="263.5" y2="21.5" />
  </g>
  <clipPath id="clippath2">
    <path d="M-1,-1 H1672 V908H-1 z M1277,-1 H1339 V251 H1277 z" clip-rule="evenodd" />
  </clipPath>
  <g clip-path="url(#clippath2)">
    <polyline stroke="#a6caf0" stroke-width="1" stroke-linecap="round" stroke-linejoin="round" fill="none" points="258,569 259,569 260,569 261,569 262,569 263,569 264,569 265,569 266,569 267,569 268,569 269,569 270,569 271,569 272,569 273,569 274,569 275,569 276,569 277,569 278,569 279,569 280,569 281,569 282,569 283,569 284,569 285,569 286,569 287,569 288,569 289,569 290,569 291,569 292,569 293,569 294,569 295,569 296,569 297,569 298,569 299,569 300,569 301,569 302,569 303,569 304,569 305,569 306,569 307,569 308,569 309,569 310,569 311,569 312,569 313,569 314,569 315,569 316,569 317,569 318,569 319,569 320,569 321,569 322,569 323,569 324,569 325,569 326,569 327,569 328,569 329,569 330,569 331,569 332,569 333,569 334,569 335,569 336,569 337,569 338,569 339,569 340,569 341,569 342,569 343,569 344,569 345,569 346,569 347,569 348,569 349,569 350,569 351,569 352,569 353,569 354,569 355,569 356,569 357,569 358,569 359,569 360,569 361,569 362,569 363,569 364,569 365,569 366,569 367,569 368,569 369,569 370,569 371,569 372,569 373,569 374,569 375,569 376,569 377,569 378,569 379,569 380,569 381,569 382,569 383,569 384,569 385,569 386,569 387,569 388,569 389,569 390,569 391,569 392,569 393,569 394,569 395,569 396,569 397,569 398,569 399,569 400,569 401,569 402,569 403,569 404,569 405,569 406,569 407,569 408,569 409,569 410,569 411,569 412,569 413,569 414,569 415,569 416,569 417,569 418,569 419,569 420,569 421,569 422,569 423,569 424,569 425,569 426,569 427,569 428,569 429,569 430,569 431,569 432,569 433,569 434,569 435,569 436,569 437,569 438,569 439,569 440,569 441,569 442,569 443,569 444,569 445,569 446,569 447,569 448,569 449,569 450,569 451,569 452,569 453,569 454,569 455,569 456,569 457,569 458,569 459,569 460,569 461,569 462,569 463,569 464,569 465,569 466,569 467,569 468,569 469,569 470,569 471,569 472,569 473,569 474,569 475,569 476,569 477,569 478,569 479,569 480,569 481,569 482,569 483,569 484,569 485,569 486,569 487,569 488,569 489,569 490,569 491,569 492,569 493,569 494,569 495,569 496,569 497,569 498,569 499,569 500,569 501,569 502,569 503,569 504,569 505,569 506,569 507,569 508,569 509,569 510,569 511,569 512,569 513,569 514,569 515,569 516,569 517,569 518,569 519,569 520,569 521,569 522,569 523,569 524,569 525,569 526,569 527,569 528,569 529,569 530,569 531,569 532,569 533,569 534,569 535,569 536,569 537,569 538,569 539,569 540,569 541,569 542,569 543,569 544,569 545,569 546,569 547,569 548,569 549,569 550,569 551,569 552,569 553,569 554,569 555,569 556,569 557,569 558,569 559,569 560,569 561,569 562,569 563,569 564,569 565,569 566,569 567,569 568,569 569,569 570,569 571,569 572,569 573,569 574,569 575,569 576,569 577,569 578,569 579,569 580,569 581,569 582,569 583,569 584,569 585,569 586,569 587,569 588,569 589,569 590,569 591,569 592,569 593,569 594,569 595,569 596,569 597,569 598,569 599,569 600,569 601,569 602,569 603,569 604,569 605,569 606,569 607,569 608,569 609,569 610,569 611,569 612,569 613,569 614,569 615,569 616,569 617,569 618,569 619,569 620,569 621,569 622,569 623,569 624,569 625,569 626,569 627,569 628,569 629,569 630,569 631,569 632,569 633,569 634,569 635,569 636,569 637,569 638,569 639,569 640,569 641,569 642,569 643,569 644,569 645,569 646,569 647,569 648,569 649,569 650,569 651,569 652,569 653,569 654,569 655,569 656,569 657,569 658,569 659,569 660,569 661,569 662,569 663,569 664,569 665,569 666,569 667,569 668,569 669,569 670,569 671,569 672,569 673,569 674,569 675,569 676,569 677,569 678,569 679,569 680,569 681,569 682,569 683,569 684,569 685,569 686,569 687,569 688,569 689,569 690,569 691,569 692,569 693,569 694,569 695,569 696,569 697,569 698,569 699,569 700,569 701,569 702,569 703,569 704,569 705,569 706,569 707,569 708,569 709,569 710,569 711,569 712,569 713,569 714,569 715,569 716,569 717,569 718,569 719,569 720,569 721,569 722,569 723,569 724,569 725,569 726,569 727,569 728,569 729,569 730,569 731,569 732,569 733,569 734,569 735,569 736,569 737,569 738,569 739,569 740,569 741,569 742,569 743,569 744,569 745,569 746,569 747,569 748,569 749,569 750,569 751,569 752,569 753,569 754,569 755,569 756,569 757,569 758,569 759,569 760,569 761,569 762,569 763,569 764,569 765,569 766,569 767,569 768,569 769,569 770,569 771,569 772,569 773,569 774,569 775,569 776,569 777,569 778,569 779,569 780,569 781,569 782,569 783,569 784,569 785,569 786,569 787,569 788,569 789,569 790,569 791,569 792,569 793,569 794,569 795,569 796,569 797,569 798,569 799,569 800,569 801,569 802,569 803,569 804,569 805,569 806,569 807,569 808,569 809,569 810,569 811,569 812,569 813,569 814,569 815,569 816,569 817,569 818,569 819,569 820,569 821,569 822,569 823,569 824,569 825,569 826,569 827,569 828,569 829,569 830,569 831,569 832,569 833,569 834,569 835,569 836,569 837,569 838,569 839,569 840,569 841,569 842,569 843,569 844,569 845,569 846,569 847,569 848,569 849,569 850,569 851,569 852,569 853,569 854,569 855,569 856,569 857,569 858,569 859,569 860,569 861,569 862,569 863,569 864,569 865,569 866,569 867,569 868,569 869,569 870,569 871,569 872,569 873,569 874,569 875,569 876,569 877,569 878,569 879,569 880,569 881,569 882,569 883,569 884,569 885,569 886,569 887,569 888,569 889,569 890,569 891,569 892,569 893,569 894,569 895,569 896,569 897,569 898,569 899,569 900,569 901,569 902,569 903,569 904,569 905,569 906,569 907,569 908,569 909,569 910,569 911,569 912,569 913,569 914,569 915,569 916,569 917,569 918,569 919,569 920,569 921,569 922,569 923,569 924,569 925,569 926,569 927,569 928,569 929,569 930,569 931,569 932,569 933,569 934,569 935,569 936,569 937,569 938,569 939,569 940,569 941,569 942,569 943,569 944,569 945,569 946,569 947,569 948,569 949,569 950,569 951,569 952,569 953,569 954,569 955,569 956,569 957,569 958,569 959,569 960,569 961,569 962,569 963,569 964,569 965,569 966,569 967,569 968,569 969,569 970,569 971,569 972,569 973,569 974,569 975,569 976,569 977,569 978,569 979,569 980,569 981,569 982,569 983,569 984,569 985,569 986,569 987,569 988,569 989,569 990,569 991,569 992,569 993,569 994,569 995,569 996,569 997,569 998,569 999,569 1000,569 1001,569 1002,569 1003,569 1004,569 1005,569 1006,569 1007,569 1008,569 1009,569 1010,569 1011,569 1012,569 1013,569 1014,569 1015,569 1016,569 1017,569 1018,569 1019,569 1020,569 1021,569 1022,569 1023,569 1024,569 1025,569 1026,569 1027,569 1028,569 1029,569 1030,569 1031,569 1032,569 1033,569 1034,569 1035,569 1036,569 1037,569 1038,569 1039,569 1040,569 1041,569 1042,569 1043,569 1044,569 1045,569 1046,569 1047,569 1048,569 1049,569 1050,569 1051,569 1052,569 1053,569 1054,569 1055,569 1056,569 1057,569 1058,569 1059,569 1060,569 1061,569 1062,569 1063,569 1064,569 1065,569 1066,569 1067,569 1068,569 1069,569 1070,569 1071,569 1072,569 1073,569 1074,569 1075,569 1076,569 1077,569 1078,569 1079,569 1080,569 1081,569 1082,569 1083,569 1084,569 1085,569 1086,569 1087,569 1088,569 1089,569 1090,569 1091,569 1092,569 1093,569 1094,569 1095,569 1096,569 1097,569 1098,569 1099,569 1100,569 1101,569 1102,569 1103,569 1104,569 1105,569 1106,569 1107,569 1108,569 1109,569 1110,569 1111,569 1112,569 1113,569 1114,569 1115,569 1116,569 1117,569 1118,569 1119,569 1120,569 1121,569 1122,569 1123,569 1124,569 1125,569 1126,569 1127,569 1128,569 1129,569 1130,569 1131,569 1132,569 1133,569 1134,569 1135,569 1136,569 1137,569 1138,569 1139,569 1140,569 1141,569 1142,569 1143,569 1144,569 1145,569 1146,569 1147,569 1148,569 1149,569 1150,569 1151,569 1152,569 1153,569 1154,569 1155,569 1156,569 1157,569 1158,569 1159,569 1160,569 1161,569 1162,569 1163,569 1164,569 1165,569 1166,569 1167,569 1168,569 1169,569 1170,569 1171,569 1172,569 1173,569 1174,569 1175,569 1176,569 1177,569 1178,569 1179,569 1180,569 1181,569 1182,569 1183,569 1184,569 1185,569 1186,569 1187,569 1188,569 1189,569 1190,569 1191,569 1192,569 1193,569 1194,569 1195,569 1196,569 1197,569 1198,569 1199,569 1200,569 1201,569 1202,569 1203,569 1204,569 1205,569 1206,569 1207,569 1208,569 1209,569 1210,569 1211,569 1212,569 1213,569 1214,569 1215,569 1216,569 1217,569 1218,569 1219,569 1220,569 1221,569 1222,569 1223,569 1224,569 1225,569 1226,569 1227,569 1228,569 1229,569 1230,569 1231,569 1232,569 1233,569 1234,569 1235,569 1236,569 1237,569 1238,569 1239,569 1240,569 1241,569 1242,569 1243,569 1244,569 1245,569 1246,569 1247,569 1248,569 1249,569 1250,569 1251,569 1252,569 1253,569 1254,569 1255,569 1256,569 1257,569 1258,569 1259,569 1260,569 1261,569 1262,569 1263,569 1264,569 1265,569 1266,569 1267,569 1268,569 1269,569 1270,569 1271,569 1272,569 1273,569 1274,569 1275,569 1276,569 1277,569 1278,569 1279,569 1280,569 1281,569 1282,569 1283,569 1284,569 1285,569 1286,569 1287,569 1288,569 1289,569 1290,569 1291,569 1292,569 1293,569 1294,569 1295,569 1296,569 1297,569 1298,569 1299,569 1300,569 1301,569 1302,569 1303,569 1304,569 1305,569 1306,569 1307,569 1308,569 1309,569 1310,569 1311,569 1312,569 1313,569 1314,569 1315,569 1316,569 1317,569 1318,569 1319,569 1320,569 1321,569 1322,569 1323,569 1324,569 1325,569 1326,569 1327,569 1328,569 1329,569 1330,569 1331,569 1332,569 1333,569 1334,569 1335,569 1336,569 1337,569 1338,569 " />
  </g>
  <clipPath id="clippath3">
    <path d="M-1,-1 H1672 V908H-1 z M1277,-1 H1339 V251 H1277 z" clip-rule="evenodd" />
  </clipPath>
  <g clip-path="url(#clippath3)">
    <polyline stroke="#ff00ff" stroke-width="1" stroke-linecap="round" stroke-linejoin="round" fill="none" points="323,727 323,672 324,662 324,653 324,645 325,638 326,634 327,631 328,629 329,627 330,625 331,624 332,623 333,622 334,621 335,620 336,619 337,619 338,618 339,617 340,617 341,616 342,616 343,615 344,615 345,614 346,614 347,614 348,613 349,613 350,613 351,612 352,612 353,612 354,611 355,611 356,611 357,611 358,610 359,610 360,610 361,610 362,609 363,609 364,609 365,609 366,609 367,608 368,608 369,608 370,608 371,608 372,608 373,607 374,607 375,607 376,607 377,607 378,607 379,607 380,606 381,606 382,606 383,606 384,606 385,606 386,606 387,605 388,605 389,605 390,605 391,605 392,605 393,605 394,605 395,605 396,605 397,604 398,604 399,604 400,604 401,604 402,604 403,604 404,604 405,604 406,604 407,604 408,603 409,603 410,603 411,603 412,603 413,603 414,603 415,603 416,603 417,603 418,603 419,603 420,603 421,602 422,602 423,602 424,602 425,602 426,602 427,602 428,602 429,602 430,602 431,602 432,602 433,602 434,602 435,602 436,602 437,601 438,601 439,601 440,601 441,601 442,601 443,601 444,601 445,601 446,601 447,601 448,601 449,601 450,601 451,601 452,601 453,601 454,601 455,601 456,600 457,600 458,600 459,600 460,600 461,600 462,600 463,600 464,600 465,600 466,600 467,600 468,600 469,600 470,600 471,600 472,600 473,600 474,600 475,600 476,600 477,600 478,600 479,599 480,599 481,599 482,599 483,599 484,599 485,599 486,599 487,599 488,599 489,599 490,599 491,599 492,599 493,599 494,599 495,599 496,599 497,599 498,599 499,599 500,599 501,599 502,599 503,599 504,599 505,599 506,599 507,599 508,598 509,598 510,598 511,598 512,598 513,598 514,598 515,598 516,598 517,598 518,598 519,598 520,598 521,598 522,598 523,598 524,598 525,598 526,598 527,598 528,598 529,598 530,598 531,598 532,598 533,598 534,598 535,598 536,598 537,598 538,598 539,598 540,598 541,598 542,598 543,598 544,598 545,597 546,597 547,597 548,597 549,597 550,597 551,597 552,597 553,597 554,597 555,597 556,597 557,597 558,597 559,597 560,597 561,597 562,597 563,597 564,597 565,597 566,597 567,597 568,597 569,597 570,597 571,597 572,597 573,597 574,597 575,597 576,597 577,597 578,597 579,597 580,597 581,597 582,597 583,597 584,597 585,597 586,597 587,597 588,597 589,597 590,597 591,596 592,596 593,596 594,596 595,596 596,596 597,596 598,596 599,596 600,596 601,596 602,596 603,596 604,596 605,596 606,596 607,596 608,596 609,596 610,596 611,596 612,596 613,596 614,596 615,596 616,596 617,596 618,596 619,596 620,596 621,596 622,596 623,596 624,596 625,596 626,596 627,596 628,596 629,596 630,596 631,596 632,596 633,596 634,596 635,596 636,596 637,596 638,596 639,596 640,596 641,596 642,596 643,596 644,596 645,596 646,596 647,596 648,596 649,596 650,596 651,595 652,595 653,595 654,595 655,595 656,595 657,595 658,595 659,595 660,595 661,595 662,595 663,595 664,595 665,595 666,595 667,595 668,595 669,595 670,595 671,595 672,595 673,595 674,595 675,595 676,595 677,595 678,595 679,595 680,595 681,595 682,595 683,595 684,595 685,595 686,595 687,595 688,595 689,595 690,595 691,595 692,595 693,595 694,595 695,595 696,595 697,595 698,595 699,595 700,595 701,595 702,595 703,595 704,595 705,595 706,595 707,595 708,595 709,595 710,595 711,595 712,595 713,595 714,595 715,595 716,595 717,595 718,595 719,595 720,595 721,595 722,595 723,595 724,595 725,595 726,595 727,595 728,595 729,595 730,594 731,594 732,594 733,594 734,594 735,594 736,594 737,594 738,594 739,594 740,594 741,594 742,594 743,594 744,594 745,594 746,594 747,594 748,594 749,594 750,594 751,594 752,594 753,594 754,594 755,594 756,594 757,594 758,594 759,594 760,594 761,594 762,594 763,594 764,594 765,594 766,594 767,594 768,594 769,594 770,594 771,594 772,594 773,594 774,594 775,594 776,594 777,594 778,594 779,594 780,594 781,594 782,594 783,594 784,594 785,594 786,594 787,594 788,594 789,594 790,594 791,594 792,594 793,594 794,594 795,594 796,594 797,594 798,594 799,594 800,594 801,594 802,594 803,594 804,594 805,594 806,594 807,594 808,594 809,594 810,594 811,594 812,594 813,594 814,594 815,594 816,594 817,594 818,594 819,594 820,594 821,594 822,594 823,594 824,594 825,594 826,594 827,594 828,594 829,594 830,594 831,594 832,594 833,594 834,593 835,593 836,593 837,593 838,593 839,593 840,593 841,593 842,593 843,593 844,593 845,593 846,593 847,593 848,593 849,593 850,593 851,593 852,593 853,593 854,593 855,593 856,593 857,593 858,593 859,593 860,593 861,593 862,593 863,593 864,593 865,593 866,593 867,593 868,593 869,593 870,593 871,593 872,593 873,593 874,593 875,593 876,593 877,593 878,593 879,593 880,593 881,593 882,593 883,593 884,593 885,593 886,593 887,593 888,593 889,593 890,593 891,593 892,593 893,593 894,593 895,593 896,593 897,593 898,593 899,593 900,593 901,593 902,593 903,593 904,593 905,593 906,593 907,593 908,593 909,593 910,593 911,593 912,593 913,593 914,593 915,593 916,593 917,593 918,593 919,593 920,593 921,593 922,593 923,593 924,593 925,593 926,593 927,593 928,593 929,593 930,593 931,593 932,593 933,593 934,593 935,593 936,593 937,593 938,593 939,593 940,593 941,593 942,593 943,593 944,593 945,593 946,593 947,593 948,593 949,593 950,593 951,593 952,593 953,593 954,593 955,593 956,593 957,593 958,593 959,593 960,593 961,593 962,593 963,593 964,593 965,593 966,593 967,593 968,593 969,593 970,593 971,593 972,593 973,593 974,593 975,593 976,593 977,592 978,592 979,592 980,592 981,592 982,592 983,592 984,592 985,592 986,592 987,592 988,592 989,592 990,592 991,592 992,592 993,592 994,592 995,592 996,592 997,592 998,592 999,592 1000,592 1001,592 1002,592 1003,592 1004,592 1005,592 1006,592 1007,592 1008,592 1009,592 1010,592 1011,592 1012,592 1013,592 1014,592 1015,592 1016,592 1017,592 1018,592 1019,592 1020,592 1021,592 1022,592 1023,592 1024,592 1025,592 1026,592 1027,592 1028,592 1029,592 1030,592 1031,592 1032,592 1033,592 1034,592 1035,592 1036,592 1037,592 1038,592 1039,592 1040,592 1041,592 1042,592 1043,592 1044,592 1045,592 1046,592 1047,592 1048,592 1049,592 1050,592 1051,592 1052,592 1053,592 1054,592 1055,592 1056,592 1057,592 1058,592 1059,592 1060,592 1061,592 1062,592 1063,592 1064,592 1065,592 1066,592 1067,592 1068,592 1069,592 1070,592 1071,592 1072,592 1073,592 1074,592 1075,592 1076,592 1077,592 1078,592 1079,592 1080,592 1081,592 1082,592 1083,592 1084,592 1085,592 1086,592 1087,592 1088,592 1089,592 1090,592 1091,592 1092,592 1093,592 1094,592 1095,592 1096,592 1097,592 1098,592 1099,592 1100,592 1101,592 1102,592 1103,592 1104,592 1105,592 1106,592 1107,592 1108,592 1109,592 1110,592 1111,592 1112,592 1113,592 1114,592 1115,592 1116,592 1117,592 1118,592 1119,592 1120,592 1121,592 1122,592 1123,592 1124,592 1125,592 1126,592 1127,592 1128,592 1129,592 1130,592 1131,592 1132,592 1133,592 1134,592 1135,592 1136,592 1137,592 1138,592 1139,592 1140,592 1141,592 1142,592 1143,592 1144,592 1145,592 1146,592 1147,592 1148,592 1149,592 1150,592 1151,592 1152,592 1153,592 1154,592 1155,592 1156,592 1157,592 1158,592 1159,592 1160,592 1161,592 1162,592 1163,592 1164,592 1165,592 1166,592 1167,592 1168,592 1169,592 1170,592 1171,592 1172,592 1173,592 1174,592 1175,591 1176,591 1177,591 1178,591 1179,591 1180,591 1181,591 1182,591 1183,591 1184,591 1185,591 1186,591 1187,591 1188,591 1189,591 1190,591 1191,591 1192,591 1193,591 1194,591 1195,591 1196,591 1197,591 1198,591 1199,591 1200,591 1201,591 1202,591 1203,591 1204,591 1205,591 1206,591 1207,591 1208,591 1209,591 1210,591 1211,591 1212,591 1213,591 1214,591 1215,591 1216,591 1217,591 1218,591 1219,591 1220,591 1221,591 1222,591 1223,591 1224,591 1225,591 1226,591 1227,591 1228,591 1229,591 1230,591 1231,591 1232,591 1233,591 1234,591 1235,591 1236,591 1237,591 1238,591 1239,591 1240,591 1241,591 1242,591 1243,591 1244,591 1245,591 1246,591 1247,591 1248,591 1249,591 1250,591 1251,591 1252,591 1253,591 1254,591 1255,591 1256,591 1257,591 1258,591 1259,591 1260,591 1261,591 1262,591 1263,591 1264,591 1265,591 1266,591 1267,591 1268,591 1269,591 1270,591 1271,591 1272,591 1273,591 1274,591 1275,591 1276,591 1277,591 1278,591 1279,591 1280,591 1281,591 1282,591 1283,591 1284,591 1285,591 1286,591 1287,591 1288,591 1289,591 1290,591 1291,591 1292,591 1293,591 1294,591 1295,591 1296,591 1297,591 1298,591 1299,591 1300,591 1301,591 1302,591 1303,591 1304,591 1305,591 1306,591 1307,591 1308,591 1309,591 1310,591 1311,591 1312,591 1313,591 1314,591 1315,591 1316,591 1317,591 1318,591 1319,591 1320,591 1321,591 1322,591 1323,591 1324,591 1325,591 1326,591 1327,591 1328,591 1329,591 1330,591 1331,591 1332,591 1333,591 1334,591 1335,591 1336,591 1337,591 1338,591 " />
  </g>
  <clipPath id="clippath4">
    <path d="M-1,-1 H1672 V908H-1 z M1277,-1 H1339 V251 H1277 z" clip-rule="evenodd" />
  </clipPath>
  <g clip-path="url(#clippath4)">
    <polyline stroke="#0000ff" stroke-width="1" stroke-linecap="round" stroke-linejoin="round" fill="none" points="258,727 259,636 260,629 261,625 262,622 263,620 264,618 265,616 266,615 267,613 268,612 269,611 270,610 271,610 272,609 273,608 274,607 275,607 276,606 277,606 278,605 279,605 280,604 281,604 282,603 283,603 284,602 285,602 286,602 287,601 288,601 289,601 290,600 291,600 292,600 293,599 294,599 295,599 296,598 297,598 298,598 299,598 300,597 301,597 302,597 303,597 304,597 305,596 306,596 307,596 308,596 309,595 310,595 311,595 312,595 313,595 314,594 315,594 316,594 317,594 318,594 319,594 320,593 321,593 322,593 323,593 324,593 325,593 326,592 327,592 328,592 329,592 330,592 331,592 332,592 333,591 334,591 335,591 336,591 337,591 338,591 339,591 340,591 341,590 342,590 343,590 344,590 345,590 346,590 347,590 348,590 349,589 350,589 351,589 352,589 353,589 354,589 355,589 356,589 357,589 358,588 359,588 360,588 361,588 362,588 363,588 364,588 365,588 366,588 367,588 368,587 369,587 370,587 371,587 372,587 373,587 374,587 375,587 376,587 377,587 378,587 379,586 380,586 381,586 382,586 383,586 384,586 385,586 386,586 387,586 388,586 389,586 390,586 391,586 392,585 393,585 394,585 395,585 396,585 397,585 398,585 399,585 400,585 401,585 402,585 403,585 404,585 405,584 406,584 407,584 408,584 409,584 410,584 411,584 412,584 413,584 414,584 415,584 416,584 417,584 418,584 419,584 420,583 421,583 422,583 423,583 424,583 425,583 426,583 427,583 428,583 429,583 430,583 431,583 432,583 433,583 434,583 435,583 436,582 437,582 438,582 439,582 440,582 441,582 442,582 443,582 444,582 445,582 446,582 447,582 448,582 449,582 450,582 451,582 452,582 453,582 454,582 455,581 456,581 457,581 458,581 459,581 460,581 461,581 462,581 463,581 464,581 465,581 466,581 467,581 468,581 469,581 470,581 471,581 472,581 473,581 474,580 475,580 476,580 477,580 478,580 479,580 480,580 481,580 482,580 483,580 484,580 485,580 486,580 487,580 488,580 489,580 490,580 491,580 492,580 493,580 494,580 495,580 496,579 497,579 498,579 499,579 500,579 501,579 502,579 503,579 504,579 505,579 506,579 507,579 508,579 509,579 510,579 511,579 512,579 513,579 514,579 515,579 516,579 517,579 518,579 519,579 520,578 521,578 522,578 523,578 524,578 525,578 526,578 527,578 528,578 529,578 530,578 531,578 532,578 533,578 534,578 535,578 536,578 537,578 538,578 539,578 540,578 541,578 542,578 543,578 544,578 545,578 546,578 547,577 548,577 549,577 550,577 551,577 552,577 553,577 554,577 555,577 556,577 557,577 558,577 559,577 560,577 561,577 562,577 563,577 564,577 565,577 566,577 567,577 568,577 569,577 570,577 571,577 572,577 573,577 574,577 575,577 576,576 577,576 578,576 579,576 580,576 581,576 582,576 583,576 584,576 585,576 586,576 587,576 588,576 589,576 590,576 591,576 592,576 593,576 594,576 595,576 596,576 597,576 598,576 599,576 600,576 601,576 602,576 603,576 604,576 605,576 606,576 607,576 608,575 609,575 610,575 611,575 612,575 613,575 614,575 615,575 616,575 617,575 618,575 619,575 620,575 621,575 622,575 623,575 624,575 625,575 626,575 627,575 628,575 629,575 630,575 631,575 632,575 633,575 634,575 635,575 636,575 637,575 638,575 639,575 640,575 641,575 642,575 643,575 644,574 645,574 646,574 647,574 648,574 649,574 650,574 651,574 652,574 653,574 654,574 655,574 656,574 657,574 658,574 659,574 660,574 661,574 662,574 663,574 664,574 665,574 666,574 667,574 668,574 669,574 670,574 671,574 672,574 673,574 674,574 675,574 676,574 677,574 678,574 679,574 680,574 681,574 682,574 683,573 684,573 685,573 686,573 687,573 688,573 689,573 690,573 691,573 692,573 693,573 694,573 695,573 696,573 697,573 698,573 699,573 700,573 701,573 702,573 703,573 704,573 705,573 706,573 707,573 708,573 709,573 710,573 711,573 712,573 713,573 714,573 715,573 716,573 717,573 718,573 719,573 720,573 721,573 722,573 723,573 724,573 725,573 726,572 727,572 728,572 729,572 730,572 731,572 732,572 733,572 734,572 735,572 736,572 737,572 738,572 739,572 740,572 741,572 742,572 743,572 744,572 745,572 746,572 747,572 748,572 749,572 750,572 751,572 752,572 753,572 754,572 755,572 756,572 757,572 758,572 759,572 760,572 761,572 762,572 763,572 764,572 765,572 766,572 767,572 768,572 769,572 770,572 771,572 772,572 773,571 774,571 775,571 776,571 777,571 778,571 779,571 780,571 781,571 782,571 783,571 784,571 785,571 786,571 787,571 788,571 789,571 790,571 791,571 792,571 793,571 794,571 795,571 796,571 797,571 798,571 799,571 800,571 801,571 802,571 803,571 804,571 805,571 806,571 807,571 808,571 809,571 810,571 811,571 812,571 813,571 814,571 815,571 816,571 817,571 818,571 819,571 820,571 821,571 822,571 823,571 824,571 825,570 826,570 827,570 828,570 829,570 830,570 831,570 832,570 833,570 834,570 835,570 836,570 837,570 838,570 839,570 840,570 841,570 842,570 843,570 844,570 845,570 846,570 847,570 848,570 849,570 850,570 851,570 852,570 853,570 854,570 855,570 856,570 857,570 858,570 859,570 860,570 861,570 862,570 863,570 864,570 865,570 866,570 867,570 868,570 869,570 870,570 871,570 872,570 873,570 874,570 875,570 876,570 877,570 878,570 879,570 880,570 881,570 882,570 883,569 884,569 885,569 886,569 887,569 888,569 889,569 890,569 891,569 892,569 893,569 894,569 895,569 896,569 897,569 898,569 899,569 900,569 901,569 902,569 903,569 904,569 905,569 906,569 907,569 908,569 909,569 910,569 911,569 912,569 913,569 914,569 915,569 916,569 917,569 918,569 919,569 920,569 921,569 922,569 923,569 924,569 925,569 926,569 927,569 928,569 929,569 930,569 931,569 932,569 933,569 934,569 935,569 936,569 937,569 938,569 939,569 940,569 941,569 942,569 943,569 944,569 945,569 946,568 947,568 948,568 949,568 950,568 951,568 952,568 953,568 954,568 955,568 956,568 957,568 958,568 959,568 960,568 961,568 962,568 963,568 964,568 965,568 966,568 967,568 968,568 969,568 970,568 971,568 972,568 973,568 974,568 975,568 976,568 977,568 978,568 979,568 980,568 981,568 982,568 983,568 984,568 985,568 986,568 987,568 988,568 989,568 990,568 991,568 992,568 993,568 994,568 995,568 996,568 997,568 998,568 999,568 1000,568 1001,568 1002,568 1003,568 1004,568 1005,568 1006,568 1007,568 1008,568 1009,568 1010,568 1011,568 1012,568 1013,568 1014,568 1015,568 1016,567 1017,567 1018,567 1019,567 1020,567 1021,567 1022,567 1023,567 1024,567 1025,567 1026,567 1027,567 1028,567 1029,567 1030,567 1031,567 1032,567 1033,567 1034,567 1035,567 1036,567 1037,567 1038,567 1039,567 1040,567 1041,567 1042,567 1043,567 1044,567 1045,567 1046,567 1047,567 1048,567 1049,567 1050,567 1051,567 1052,567 1053,567 1054,567 1055,567 1056,567 1057,567 1058,567 1059,567 1060,567 1061,567 1062,567 1063,567 1064,567 1065,567 1066,567 1067,567 1068,567 1069,567 1070,567 1071,567 1072,567 1073,567 1074,567 1075,567 1076,567 1077,567 1078,567 1079,567 1080,567 1081,567 1082,567 1083,567 1084,567 1085,567 1086,567 1087,567 1088,567 1089,567 1090,567 1091,567 1092,567 1093,566 1094,566 1095,566 1096,566 1097,566 1098,566 1099,566 1100,566 1101,566 1102,566 1103,566 1104,566 1105,566 1106,566 1107,566 1108,566 1109,566 1110,566 1111,566 1112,566 1113,566 1114,566 1115,566 1116,566 1117,566 1118,566 1119,566 1120,566 1121,566 1122,566 1123,566 1124,566 1125,566 1126,566 1127,566 1128,566 1129,566 1130,566 1131,566 1132,566 1133,566 1134,566 1135,566 1136,566 1137,566 1138,566 1139,566 1140,566 1141,566 1142,566 1143,566 1144,566 1145,566 1146,566 1147,566 1148,566 1149,566 1150,566 1151,566 1152,566 1153,566 1154,566 1155,566 1156,566 1157,566 1158,566 1159,566 1160,566 1161,566 1162,566 1163,566 1164,566 1165,566 1166,566 1167,566 1168,566 1169,566 1170,566 1171,566 1172,566 1173,566 1174,566 1175,566 1176,566 1177,565 1178,565 1179,565 1180,565 1181,565 1182,565 1183,565 1184,565 1185,565 1186,565 1187,565 1188,565 1189,565 1190,565 1191,565 1192,565 1193,565 1194,565 1195,565 1196,565 1197,565 1198,565 1199,565 1200,565 1201,565 1202,565 1203,565 1204,565 1205,565 1206,565 1207,565 1208,565 1209,565 1210,565 1211,565 1212,565 1213,565 1214,565 1215,565 1216,565 1217,565 1218,565 1219,565 1220,565 1221,565 1222,565 1223,565 1224,565 1225,565 1226,565 1227,565 1228,565 1229,565 1230,565 1231,565 1232,565 1233,565 1234,565 1235,565 1236,565 1237,565 1238,565 1239,565 1240,565 1241,565 1242,565 1243,565 1244,565 1245,565 1246,565 1247,565 1248,565 1249,565 1250,565 1251,565 1252,565 1253,565 1254,565 1255,565 1256,565 1257,565 1258,565 1259,565 1260,565 1261,565 1262,565 1263,565 1264,565 1265,565 1266,565 1267,565 1268,565 1269,565 1270,564 1271,564 1272,564 1273,564 1274,564 1275,564 1276,564 1277,564 1278,564 1279,564 1280,564 1281,564 1282,564 1283,564 1284,564 1285,564 1286,564 1287,564 1288,564 1289,564 1290,564 1291,564 1292,564 1293,564 1294,564 1295,564 1296,564 1297,564 1298,564 1299,564 1300,564 1301,564 1302,564 1303,564 1304,564 1305,564 1306,564 1307,564 1308,564 1309,564 1310,564 1311,564 1312,564 1313,564 1314,564 1315,564 1316,564 1317,564 1318,564 1319,564 1320,564 1321,564 1322,564 1323,564 1324,564 1325,564 1326,564 1327,564 1328,564 1329,564 1330,564 1331,564 1332,564 1333,564 1334,564 1335,564 1336,564 1337,564 1338,564 " />
  </g>
  <clipPath id="clippath5">
    <path d="M-1,-1 H1672 V908H-1 z M1277,-1 H1339 V251 H1277 z" clip-rule="evenodd" />
  </clipPath>
  <g clip-path="url(#clippath5)">
    <polyline stroke="#800000" stroke-width="1" stroke-linecap="round" stroke-linejoin="round" fill="none" points="258,593 259,590 260,589 261,588 262,587 263,586 264,586 265,585 266,585 267,584 268,584 269,583 270,583 271,582 272,582 273,581 274,581 275,581 276,580 277,580 278,580 279,579 280,579 281,579 282,578 283,578 284,578 285,578 286,577 287,577 288,577 289,576 290,576 291,576 292,576 293,575 294,575 295,575 296,575 297,574 298,574 299,574 300,574 301,574 302,573 303,573 304,573 305,573 306,572 307,572 308,572 309,572 310,572 311,571 312,571 313,571 314,571 315,571 316,570 317,570 318,570 319,570 320,570 321,569 322,569 323,569 324,569 325,569 326,569 327,568 328,568 329,568 330,568 331,568 332,567 333,567 334,567 335,567 336,567 337,567 338,566 339,566 340,566 341,566 342,566 343,566 344,565 345,565 346,565 347,565 348,565 349,565 350,565 351,564 352,564 353,564 354,564 355,564 356,564 357,563 358,563 359,563 360,563 361,563 362,563 363,563 364,562 365,562 366,562 367,562 368,562 369,562 370,562 371,561 372,561 373,561 374,561 375,561 376,561 377,561 378,561 379,560 380,560 381,560 382,560 383,560 384,560 385,560 386,559 387,559 388,559 389,559 390,559 391,559 392,559 393,559 394,558 395,558 396,558 397,558 398,558 399,558 400,558 401,558 402,557 403,557 404,557 405,557 406,557 407,557 408,557 409,557 410,556 411,556 412,556 413,556 414,556 415,556 416,556 417,556 418,556 419,555 420,555 421,555 422,555 423,555 424,555 425,555 426,555 427,554 428,554 429,554 430,554 431,554 432,554 433,554 434,554 435,554 436,553 437,553 438,553 439,553 440,553 441,553 442,553 443,553 444,553 445,552 446,552 447,552 448,552 449,552 450,552 451,552 452,552 453,552 454,552 455,551 456,551 457,551 458,551 459,551 460,551 461,551 462,551 463,551 464,550 465,550 466,550 467,550 468,550 469,550 470,550 471,550 472,550 473,550 474,549 475,549 476,549 477,549 478,549 479,549 480,549 481,549 482,549 483,549 484,548 485,548 486,548 487,548 488,548 489,548 490,548 491,548 492,548 493,548 494,547 495,547 496,547 497,547 498,547 499,547 500,547 501,547 502,547 503,547 504,547 505,546 506,546 507,546 508,546 509,546 510,546 511,546 512,546 513,546 514,546 515,545 516,545 517,545 518,545 519,545 520,545 521,545 522,545 523,545 524,545 525,545 526,544 527,544 528,544 529,544 530,544 531,544 532,544 533,544 534,544 535,544 536,544 537,544 538,543 539,543 540,543 541,543 542,543 543,543 544,543 545,543 546,543 547,543 548,543 549,542 550,542 551,542 552,542 553,542 554,542 555,542 556,542 557,542 558,542 559,542 560,542 561,541 562,541 563,541 564,541 565,541 566,541 567,541 568,541 569,541 570,541 571,541 572,540 573,540 574,540 575,540 576,540 577,540 578,540 579,540 580,540 581,540 582,540 583,540 584,540 585,539 586,539 587,539 588,539 589,539 590,539 591,539 592,539 593,539 594,539 595,539 596,539 597,538 598,538 599,538 600,538 601,538 602,538 603,538 604,538 605,538 606,538 607,538 608,538 609,537 610,537 611,537 612,537 613,537 614,537 615,537 616,537 617,537 618,537 619,537 620,537 621,537 622,536 623,536 624,536 625,536 626,536 627,536 628,536 629,536 630,536 631,536 632,536 633,536 634,536 635,535 636,535 637,535 638,535 639,535 640,535 641,535 642,535 643,535 644,535 645,535 646,535 647,535 648,534 649,534 650,534 651,534 652,534 653,534 654,534 655,534 656,534 657,534 658,534 659,534 660,534 661,534 662,533 663,533 664,533 665,533 666,533 667,533 668,533 669,533 670,533 671,533 672,533 673,533 674,533 675,533 676,532 677,532 678,532 679,532 680,532 681,532 682,532 683,532 684,532 685,532 686,532 687,532 688,532 689,531 690,531 691,531 692,531 693,531 694,531 695,531 696,531 697,531 698,531 699,531 700,531 701,531 702,531 703,531 704,530 705,530 706,530 707,530 708,530 709,530 710,530 711,530 712,530 713,530 714,530 715,530 716,530 717,530 718,529 719,529 720,529 721,529 722,529 723,529 724,529 725,529 726,529 727,529 728,529 729,529 730,529 731,529 732,529 733,528 734,528 735,528 736,528 737,528 738,528 739,528 740,528 741,528 742,528 743,528 744,528 745,528 746,528 747,527 748,527 749,527 750,527 751,527 752,527 753,527 754,527 755,527 756,527 757,527 758,527 759,527 760,527 761,527 762,526 763,526 764,526 765,526 766,526 767,526 768,526 769,526 770,526 771,526 772,526 773,526 774,526 775,526 776,526 777,526 778,525 779,525 780,525 781,525 782,525 783,525 784,525 785,525 786,525 787,525 788,525 789,525 790,525 791,525 792,525 793,524 794,524 795,524 796,524 797,524 798,524 799,524 800,524 801,524 802,524 803,524 804,524 805,524 806,524 807,524 808,524 809,523 810,523 811,523 812,523 813,523 814,523 815,523 816,523 817,523 818,523 819,523 820,523 821,523 822,523 823,523 824,523 825,522 826,522 827,522 828,522 829,522 830,522 831,522 832,522 833,522 834,522 835,522 836,522 837,522 838,522 839,522 840,522 841,521 842,521 843,521 844,521 845,521 846,521 847,521 848,521 849,521 850,521 851,521 852,521 853,521 854,521 855,521 856,521 857,521 858,520 859,520 860,520 861,520 862,520 863,520 864,520 865,520 866,520 867,520 868,520 869,520 870,520 871,520 872,520 873,520 874,519 875,519 876,519 877,519 878,519 879,519 880,519 881,519 882,519 883,519 884,519 885,519 886,519 887,519 888,519 889,519 890,519 891,518 892,518 893,518 894,518 895,518 896,518 897,518 898,518 899,518 900,518 901,518 902,518 903,518 904,518 905,518 906,518 907,518 908,517 909,517 910,517 911,517 912,517 913,517 914,517 915,517 916,517 917,517 918,517 919,517 920,517 921,517 922,517 923,517 924,517 925,517 926,516 927,516 928,516 929,516 930,516 931,516 932,516 933,516 934,516 935,516 936,516 937,516 938,516 939,516 940,516 941,516 942,516 943,515 944,515 945,515 946,515 947,515 948,515 949,515 950,515 951,515 952,515 953,515 954,515 955,515 956,515 957,515 958,515 959,515 960,515 961,514 962,514 963,514 964,514 965,514 966,514 967,514 968,514 969,514 970,514 971,514 972,514 973,514 974,514 975,514 976,514 977,514 978,514 979,513 980,513 981,513 982,513 983,513 984,513 985,513 986,513 987,513 988,513 989,513 990,513 991,513 992,513 993,513 994,513 995,513 996,513 997,512 998,512 999,512 1000,512 1001,512 1002,512 1003,512 1004,512 1005,512 1006,512 1007,512 1008,512 1009,512 1010,512 1011,512 1012,512 1013,512 1014,512 1015,512 1016,511 1017,511 1018,511 1019,511 1020,511 1021,511 1022,511 1023,511 1024,511 1025,511 1026,511 1027,511 1028,511 1029,511 1030,511 1031,511 1032,511 1033,511 1034,510 1035,510 1036,510 1037,510 1038,510 1039,510 1040,510 1041,510 1042,510 1043,510 1044,510 1045,510 1046,510 1047,510 1048,510 1049,510 1050,510 1051,510 1052,510 1053,509 1054,509 1055,509 1056,509 1057,509 1058,509 1059,509 1060,509 1061,509 1062,509 1063,509 1064,509 1065,509 1066,509 1067,509 1068,509 1069,509 1070,509 1071,509 1072,509 1073,508 1074,508 1075,508 1076,508 1077,508 1078,508 1079,508 1080,508 1081,508 1082,508 1083,508 1084,508 1085,508 1086,508 1087,508 1088,508 1089,508 1090,508 1091,508 1092,507 1093,507 1094,507 1095,507 1096,507 1097,507 1098,507 1099,507 1100,507 1101,507 1102,507 1103,507 1104,507 1105,507 1106,507 1107,507 1108,507 1109,507 1110,507 1111,507 1112,506 1113,506 1114,506 1115,506 1116,506 1117,506 1118,506 1119,506 1120,506 1121,506 1122,506 1123,506 1124,506 1125,506 1126,506 1127,506 1128,506 1129,506 1130,506 1131,505 1132,505 1133,505 1134,505 1135,505 1136,505 1137,505 1138,505 1139,505 1140,505 1141,505 1142,505 1143,505 1144,505 1145,505 1146,505 1147,505 1148,505 1149,505 1150,505 1151,504 1152,504 1153,504 1154,504 1155,504 1156,504 1157,504 1158,504 1159,504 1160,504 1161,504 1162,504 1163,504 1164,504 1165,504 1166,504 1167,504 1168,504 1169,504 1170,504 1171,504 1172,503 1173,503 1174,503 1175,503 1176,503 1177,503 1178,503 1179,503 1180,503 1181,503 1182,503 1183,503 1184,503 1185,503 1186,503 1187,503 1188,503 1189,503 1190,503 1191,503 1192,502 1193,502 1194,502 1195,502 1196,502 1197,502 1198,502 1199,502 1200,502 1201,502 1202,502 1203,502 1204,502 1205,502 1206,502 1207,502 1208,502 1209,502 1210,502 1211,502 1212,502 1213,501 1214,501 1215,501 1216,501 1217,501 1218,501 1219,501 1220,501 1221,501 1222,501 1223,501 1224,501 1225,501 1226,501 1227,501 1228,501 1229,501 1230,501 1231,501 1232,501 1233,501 1234,500 1235,500 1236,500 1237,500 1238,500 1239,500 1240,500 1241,500 1242,500 1243,500 1244,500 1245,500 1246,500 1247,500 1248,500 1249,500 1250,500 1251,500 1252,500 1253,500 1254,500 1255,499 1256,499 1257,499 1258,499 1259,499 1260,499 1261,499 1262,499 1263,499 1264,499 1265,499 1266,499 1267,499 1268,499 1269,499 1270,499 1271,499 1272,499 1273,499 1274,499 1275,499 1276,499 1277,498 1278,498 1279,498 1280,498 1281,498 1282,498 1283,498 1284,498 1285,498 1286,498 1287,498 1288,498 1289,498 1290,498 1291,498 1292,498 1293,498 1294,498 1295,498 1296,498 1297,498 1298,497 1299,497 1300,497 1301,497 1302,497 1303,497 1304,497 1305,497 1306,497 1307,497 1308,497 1309,497 1310,497 1311,497 1312,497 1313,497 1314,497 1315,497 1316,497 1317,497 1318,497 1319,497 1320,496 1321,496 1322,496 1323,496 1324,496 1325,496 1326,496 1327,496 1328,496 1329,496 1330,496 1331,496 1332,496 1333,496 1334,496 1335,496 1336,496 1337,496 1338,496 " />
  </g>
  <clipPath id="clippath6">
    <path d="M-1,-1 H1672 V908H-1 z M1277,-1 H1339 V251 H1277 z" clip-rule="evenodd" />
  </clipPath>
  <g clip-path="url(#clippath6)">
    <polyline stroke="#808080" stroke-width="1" stroke-linecap="round" stroke-linejoin="round" fill="none" points="258,593 259,593 260,592 261,592 262,591 263,591 264,591 265,590 266,590 267,590 268,589 269,589 270,589 271,588 272,588 273,587 274,587 275,587 276,586 277,586 278,586 279,585 280,585 281,584 282,584 283,584 284,583 285,583 286,583 287,582 288,582 289,582 290,581 291,581 292,580 293,580 294,580 295,579 296,579 297,579 298,578 299,578 300,578 301,577 302,577 303,576 304,576 305,576 306,575 307,575 308,575 309,574 310,574 311,573 312,573 313,573 314,572 315,572 316,572 317,571 318,571 319,571 320,570 321,570 322,569 323,569 324,569 325,568 326,568 327,568 328,567 329,567 330,566 331,566 332,566 333,565 334,565 335,565 336,564 337,564 338,564 339,563 340,563 341,562 342,562 343,562 344,561 345,561 346,561 347,560 348,560 349,560 350,559 351,559 352,558 353,558 354,558 355,557 356,557 357,557 358,556 359,556 360,555 361,555 362,555 363,554 364,554 365,554 366,553 367,553 368,553 369,552 370,552 371,551 372,551 373,551 374,550 375,550 376,550 377,549 378,549 379,548 380,548 381,548 382,547 383,547 384,547 385,546 386,546 387,546 388,545 389,545 390,544 391,544 392,544 393,543 394,543 395,543 396,542 397,542 398,542 399,541 400,541 401,540 402,540 403,540 404,539 405,539 406,539 407,538 408,538 409,537 410,537 411,537 412,536 413,536 414,536 415,535 416,535 417,535 418,534 419,534 420,533 421,533 422,533 423,532 424,532 425,532 426,531 427,531 428,531 429,530 430,530 431,529 432,529 433,529 434,528 435,528 436,528 437,527 438,527 439,526 440,526 441,526 442,525 443,525 444,525 445,524 446,524 447,524 448,523 449,523 450,522 451,522 452,522 453,521 454,521 455,521 456,520 457,520 458,519 459,519 460,519 461,518 462,518 463,518 464,517 465,517 466,517 467,516 468,516 469,515 470,515 471,515 472,514 473,514 474,514 475,513 476,513 477,513 478,512 479,512 480,511 481,511 482,511 483,510 484,510 485,510 486,509 487,509 488,508 489,508 490,508 491,507 492,507 493,507 494,506 495,506 496,506 497,505 498,505 499,504 500,504 501,504 502,503 503,503 504,503 505,502 506,502 507,501 508,501 509,501 510,500 511,500 512,500 513,499 514,499 515,499 516,498 517,498 518,497 519,497 520,497 521,496 522,496 523,496 524,495 525,495 526,495 527,494 528,494 529,493 530,493 531,493 532,492 533,492 534,492 535,491 536,491 537,490 538,490 539,490 540,489 541,489 542,489 543,488 544,488 545,488 546,487 547,487 548,486 549,486 550,486 551,485 552,485 553,485 554,484 555,484 556,483 557,483 558,483 559,482 560,482 561,482 562,481 563,481 564,481 565,480 566,480 567,479 568,479 569,479 570,478 571,478 572,478 573,477 574,477 575,477 576,476 577,476 578,475 579,475 580,475 581,474 582,474 583,474 584,473 585,473 586,472 587,472 588,472 589,471 590,471 591,471 592,470 593,470 594,470 595,469 596,469 597,468 598,468 599,468 600,467 601,467 602,467 603,466 604,466 605,465 606,465 607,465 608,464 609,464 610,464 611,463 612,463 613,463 614,462 615,462 616,461 617,461 618,461 619,460 620,460 621,460 622,459 623,459 624,459 625,458 626,458 627,457 628,457 629,457 630,456 631,456 632,456 633,455 634,455 635,454 636,454 637,454 638,453 639,453 640,453 641,452 642,452 643,452 644,451 645,451 646,450 647,450 648,450 649,449 650,449 651,449 652,448 653,448 654,447 655,447 656,447 657,446 658,446 659,446 660,445 661,445 662,445 663,444 664,444 665,443 666,443 667,443 668,442 669,442 670,442 671,441 672,441 673,441 674,440 675,440 676,439 677,439 678,439 679,438 680,438 681,438 682,437 683,437 684,436 685,436 686,436 687,435 688,435 689,435 690,434 691,434 692,434 693,433 694,433 695,432 696,432 697,432 698,431 699,431 700,431 701,430 702,430 703,429 704,429 705,429 706,428 707,428 708,428 709,427 710,427 711,427 712,426 713,426 714,425 715,425 716,425 717,424 718,424 719,424 720,423 721,423 722,423 723,422 724,422 725,421 726,421 727,421 728,420 729,420 730,420 731,419 732,419 733,418 734,418 735,418 736,417 737,417 738,417 739,416 740,416 741,416 742,415 743,415 744,414 745,414 746,414 747,413 748,413 749,413 750,412 751,412 752,411 753,411 754,411 755,410 756,410 757,410 758,409 759,409 760,409 761,408 762,408 763,407 764,407 765,407 766,406 767,406 768,406 769,405 770,405 771,405 772,404 773,404 774,403 775,403 776,403 777,402 778,402 779,402 780,401 781,401 782,400 783,400 784,400 785,399 786,399 787,399 788,398 789,398 790,398 791,397 792,397 793,396 794,396 795,396 796,395 797,395 798,395 799,394 800,394 801,393 802,393 803,393 804,392 805,392 806,392 807,391 808,391 809,391 810,390 811,390 812,389 813,389 814,389 815,388 816,388 817,388 818,387 819,387 820,387 821,386 822,386 823,385 824,385 825,385 826,384 827,384 828,384 829,383 830,383 831,382 832,382 833,382 834,381 835,381 836,381 837,380 838,380 839,380 840,379 841,379 842,378 843,378 844,378 845,377 846,377 847,377 848,376 849,376 850,375 851,375 852,375 853,374 854,374 855,374 856,373 857,373 858,373 859,372 860,372 861,371 862,371 863,371 864,370 865,370 866,370 867,369 868,369 869,369 870,368 871,368 872,367 873,367 874,367 875,366 876,366 877,366 878,365 879,365 880,364 881,364 882,364 883,363 884,363 885,363 886,362 887,362 888,362 889,361 890,361 891,360 892,360 893,360 894,359 895,359 896,359 897,358 898,358 899,357 900,357 901,357 902,356 903,356 904,356 905,355 906,355 907,355 908,354 909,354 910,353 911,353 912,353 913,352 914,352 915,352 916,351 917,351 918,351 919,350 920,350 921,349 922,349 923,349 924,348 925,348 926,348 927,347 928,347 929,346 930,346 931,346 932,345 933,345 934,345 935,344 936,344 937,344 938,343 939,343 940,342 941,342 942,342 943,341 944,341 945,341 946,340 947,340 948,339 949,339 950,339 951,338 952,338 953,338 954,337 955,337 956,337 957,336 958,336 959,335 960,335 961,335 962,334 963,334 964,334 965,333 966,333 967,333 968,332 969,332 970,331 971,331 972,331 973,330 974,330 975,330 976,329 977,329 978,328 979,328 980,328 981,327 982,327 983,327 984,326 985,326 986,326 987,325 988,325 989,324 990,324 991,324 992,323 993,323 994,323 995,322 996,322 997,321 998,321 999,321 1000,320 1001,320 1002,320 1003,319 1004,319 1005,319 1006,318 1007,318 1008,317 1009,317 1010,317 1011,316 1012,316 1013,316 1014,315 1015,315 1016,315 1017,314 1018,314 1019,313 1020,313 1021,313 1022,312 1023,312 1024,312 1025,311 1026,311 1027,310 1028,310 1029,310 1030,309 1031,309 1032,309 1033,308 1034,308 1035,308 1036,307 1037,307 1038,306 1039,306 1040,306 1041,305 1042,305 1043,305 1044,304 1045,304 1046,303 1047,303 1048,303 1049,302 1050,302 1051,302 1052,301 1053,301 1054,301 1055,300 1056,300 1057,299 1058,299 1059,299 1060,298 1061,298 1062,298 1063,297 1064,297 1065,297 1066,296 1067,296 1068,295 1069,295 1070,295 1071,294 1072,294 1073,294 1074,293 1075,293 1076,292 1077,292 1078,292 1079,291 1080,291 1081,291 1082,290 1083,290 1084,290 1085,289 1086,289 1087,288 1088,288 1089,288 1090,287 1091,287 1092,287 1093,286 1094,286 1095,286 1096,285 1097,285 1098,284 1099,284 1100,284 1101,283 1102,283 1103,283 1104,282 1105,282 1106,281 1107,281 1108,281 1109,280 1110,280 1111,280 1112,279 1113,279 1114,279 1115,278 1116,278 1117,277 1118,277 1119,277 1120,276 1121,276 1122,276 1123,275 1124,275 1125,274 1126,274 1127,274 1128,273 1129,273 1130,273 1131,272 1132,272 1133,272 1134,271 1135,271 1136,270 1137,270 1138,270 1139,269 1140,269 1141,269 1142,268 1143,268 1144,268 1145,267 1146,267 1147,266 1148,266 1149,266 1150,265 1151,265 1152,265 1153,264 1154,264 1155,263 1156,263 1157,263 1158,262 1159,262 1160,262 1161,261 1162,261 1163,261 1164,260 1165,260 1166,259 1167,259 1168,259 1169,258 1170,258 1171,258 1172,257 1173,257 1174,256 1175,256 1176,256 1177,255 1178,255 1179,255 1180,254 1181,254 1182,254 1183,253 1184,253 1185,252 1186,252 1187,252 1188,251 1189,251 1190,251 1191,250 1192,250 1193,250 1194,249 1195,249 1196,248 1197,248 1198,248 1199,247 1200,247 1201,247 1202,246 1203,246 1204,245 1205,245 1206,245 1207,244 1208,244 1209,244 1210,243 1211,243 1212,243 1213,242 1214,242 1215,241 1216,241 1217,241 1218,240 1219,240 1220,240 1221,239 1222,239 1223,238 1224,238 1225,238 1226,237 1227,237 1228,237 1229,236 1230,236 1231,236 1232,235 1233,235 1234,234 1235,234 1236,234 1237,233 1238,233 1239,233 1240,232 1241,232 1242,232 1243,231 1244,231 1245,230 1246,230 1247,230 1248,229 1249,229 1250,229 1251,228 1252,228 1253,227 1254,227 1255,227 1256,226 1257,226 1258,226 1259,225 1260,225 1261,225 1262,224 1263,224 1264,223 1265,223 1266,223 1267,222 1268,222 1269,222 1270,221 1271,221 1272,220 1273,220 1274,220 1275,219 1276,219 1277,219 1278,218 1279,218 1280,218 1281,217 1282,217 1283,216 1284,216 1285,216 1286,215 1287,215 1288,215 1289,214 1290,214 1291,214 1292,213 1293,213 1294,212 1295,212 1296,212 1297,211 1298,211 1299,211 1300,210 1301,210 1302,209 1303,209 1304,209 1305,208 1306,208 1307,208 1308,207 1309,207 1310,207 1311,206 1312,206 1313,205 1314,205 1315,205 1316,204 1317,204 1318,204 1319,203 1320,203 1321,202 1322,202 1323,202 1324,201 1325,201 1326,201 1327,200 1328,200 1329,200 1330,199 1331,199 1332,198 1333,198 1334,198 1335,197 1336,197 1337,197 1338,196 " />
  </g>
  <clipPath id="clippath7">
    <path d="M-1,-1 H1672 V908H-1 z M1277,-1 H1339 V251 H1277 z" clip-rule="evenodd" />
  </clipPath>
  <g clip-path="url(#clippath7)">
    <polyline stroke="#00ff00" stroke-width="1" stroke-linecap="round" stroke-linejoin="round" fill="none" points="259,593 259,594 260,594 261,594 262,595 263,595 264,595 265,595 266,596 267,596 268,596 269,596 270,596 271,596 272,596 273,596 274,597 275,597 276,597 277,597 278,597 279,597 280,597 281,597 282,597 283,597 284,597 285,597 286,597 287,597 288,597 289,597 290,597 291,597 292,596 293,596 294,596 295,596 296,596 297,596 298,596 299,596 300,596 301,596 302,596 303,596 304,595 305,595 306,595 307,595 308,595 309,595 310,595 311,595 312,595 313,594 314,594 315,594 316,594 317,594 318,594 319,594 320,593 321,593 322,593 323,593 324,593 325,593 326,592 327,592 328,592 329,592 330,592 331,592 332,591 333,591 334,591 335,591 336,591 337,590 338,590 339,590 340,590 341,590 342,589 343,589 344,589 345,589 346,589 347,588 348,588 349,588 350,588 351,588 352,587 353,587 354,587 355,587 356,587 357,586 358,586 359,586 360,586 361,585 362,585 363,585 364,585 365,584 366,584 367,584 368,584 369,583 370,583 371,583 372,583 373,582 374,582 375,582 376,582 377,581 378,581 379,581 380,581 381,580 382,580 383,580 384,580 385,579 386,579 387,579 388,579 389,578 390,578 391,578 392,577 393,577 394,577 395,577 396,576 397,576 398,576 399,576 400,575 401,575 402,575 403,574 404,574 405,574 406,573 407,573 408,573 409,573 410,572 411,572 412,572 413,571 414,571 415,571 416,571 417,570 418,570 419,570 420,569 421,569 422,569 423,568 424,568 425,568 426,567 427,567 428,567 429,567 430,566 431,566 432,566 433,565 434,565 435,565 436,564 437,564 438,564 439,563 440,563 441,563 442,562 443,562 444,562 445,561 446,561 447,561 448,560 449,560 450,560 451,559 452,559 453,559 454,558 455,558 456,558 457,557 458,557 459,557 460,556 461,556 462,556 463,555 464,555 465,555 466,554 467,554 468,554 469,553 470,553 471,553 472,552 473,552 474,552 475,551 476,551 477,550 478,550 479,550 480,549 481,549 482,549 483,548 484,548 485,548 486,547 487,547 488,547 489,546 490,546 491,545 492,545 493,545 494,544 495,544 496,544 497,543 498,543 499,543 500,542 501,542 502,541 503,541 504,541 505,540 506,540 507,540 508,539 509,539 510,538 511,538 512,538 513,537 514,537 515,537 516,536 517,536 518,535 519,535 520,535 521,534 522,534 523,533 524,533 525,533 526,532 527,532 528,532 529,531 530,531 531,530 532,530 533,530 534,529 535,529 536,528 537,528 538,528 539,527 540,527 541,526 542,526 543,526 544,525 545,525 546,525 547,524 548,524 549,523 550,523 551,523 552,522 553,522 554,521 555,521 556,521 557,520 558,520 559,519 560,519 561,518 562,518 563,518 564,517 565,517 566,516 567,516 568,516 569,515 570,515 571,514 572,514 573,514 574,513 575,513 576,512 577,512 578,512 579,511 580,511 581,510 582,510 583,509 584,509 585,509 586,508 587,508 588,507 589,507 590,507 591,506 592,506 593,505 594,505 595,504 596,504 597,504 598,503 599,503 600,502 601,502 602,501 603,501 604,501 605,500 606,500 607,499 608,499 609,498 610,498 611,498 612,497 613,497 614,496 615,496 616,495 617,495 618,495 619,494 620,494 621,493 622,493 623,492 624,492 625,492 626,491 627,491 628,490 629,490 630,489 631,489 632,488 633,488 634,488 635,487 636,487 637,486 638,486 639,485 640,485 641,485 642,484 643,484 644,483 645,483 646,482 647,482 648,481 649,481 650,481 651,480 652,480 653,479 654,479 655,478 656,478 657,477 658,477 659,476 660,476 661,476 662,475 663,475 664,474 665,474 666,473 667,473 668,472 669,472 670,472 671,471 672,471 673,470 674,470 675,469 676,469 677,468 678,468 679,467 680,467 681,466 682,466 683,466 684,465 685,465 686,464 687,464 688,463 689,463 690,462 691,462 692,461 693,461 694,460 695,460 696,460 697,459 698,459 699,458 700,458 701,457 702,457 703,456 704,456 705,455 706,455 707,454 708,454 709,454 710,453 711,453 712,452 713,452 714,451 715,451 716,450 717,450 718,449 719,449 720,448 721,448 722,447 723,447 724,446 725,446 726,445 727,445 728,445 729,444 730,444 731,443 732,443 733,442 734,442 735,441 736,441 737,440 738,440 739,439 740,439 741,438 742,438 743,437 744,437 745,436 746,436 747,435 748,435 749,434 750,434 751,434 752,433 753,433 754,432 755,432 756,431 757,431 758,430 759,430 760,429 761,429 762,428 763,428 764,427 765,427 766,426 767,426 768,425 769,425 770,424 771,424 772,423 773,423 774,422 775,422 776,421 777,421 778,420 779,420 780,419 781,419 782,418 783,418 784,417 785,417 786,416 787,416 788,415 789,415 790,414 791,414 792,413 793,413 794,412 795,412 796,411 797,411 798,410 799,410 800,409 801,409 802,408 803,408 804,407 805,407 806,406 807,406 808,405 809,405 810,404 811,404 812,403 813,403 814,402 815,402 816,401 817,401 818,400 819,400 820,399 821,399 822,398 823,398 824,397 825,397 826,396 827,396 828,395 829,395 830,394 831,394 832,393 833,393 834,392 835,392 836,391 837,391 838,390 839,390 840,389 841,389 842,388 843,388 844,387 845,387 846,386 847,386 848,385 849,385 850,384 851,384 852,383 853,383 854,382 855,382 856,381 857,381 858,380 859,380 860,379 861,379 862,378 863,378 864,377 865,377 866,376 867,375 868,375 869,374 870,374 871,373 872,373 873,372 874,372 875,371 876,371 877,370 878,370 879,369 880,369 881,368 882,368 883,367 884,367 885,366 886,366 887,365 888,365 889,364 890,364 891,363 892,362 893,362 894,361 895,361 896,360 897,360 898,359 899,359 900,358 901,358 902,357 903,357 904,356 905,356 906,355 907,355 908,354 909,354 910,353 911,352 912,352 913,351 914,351 915,350 916,350 917,349 918,349 919,348 920,348 921,347 922,347 923,346 924,346 925,345 926,345 927,344 928,343 929,343 930,342 931,342 932,341 933,341 934,340 935,340 936,339 937,339 938,338 939,338 940,337 941,337 942,336 943,335 944,335 945,334 946,334 947,333 948,333 949,332 950,332 951,331 952,331 953,330 954,330 955,329 956,329 957,328 958,327 959,327 960,326 961,326 962,325 963,325 964,324 965,324 966,323 967,323 968,322 969,321 970,321 971,320 972,320 973,319 974,319 975,318 976,318 977,317 978,317 979,316 980,316 981,315 982,314 983,314 984,313 985,313 986,312 987,312 988,311 989,311 990,310 991,310 992,309 993,308 994,308 995,307 996,307 997,306 998,306 999,305 1000,305 1001,304 1002,303 1003,303 1004,302 1005,302 1006,301 1007,301 1008,300 1009,300 1010,299 1011,299 1012,298 1013,297 1014,297 1015,296 1016,296 1017,295 1018,295 1019,294 1020,294 1021,293 1022,292 1023,292 1024,291 1025,291 1026,290 1027,290 1028,289 1029,289 1030,288 1031,288 1032,287 1033,286 1034,286 1035,285 1036,285 1037,284 1038,284 1039,283 1040,283 1041,282 1042,281 1043,281 1044,280 1045,280 1046,279 1047,279 1048,278 1049,277 1050,277 1051,276 1052,276 1053,275 1054,275 1055,274 1056,274 1057,273 1058,272 1059,272 1060,271 1061,271 1062,270 1063,270 1064,269 1065,269 1066,268 1067,267 1068,267 1069,266 1070,266 1071,265 1072,265 1073,264 1074,263 1075,263 1076,262 1077,262 1078,261 1079,261 1080,260 1081,260 1082,259 1083,258 1084,258 1085,257 1086,257 1087,256 1088,256 1089,255 1090,254 1091,254 1092,253 1093,253 1094,252 1095,252 1096,251 1097,250 1098,250 1099,249 1100,249 1101,248 1102,248 1103,247 1104,246 1105,246 1106,245 1107,245 1108,244 1109,244 1110,243 1111,242 1112,242 1113,241 1114,241 1115,240 1116,240 1117,239 1118,238 1119,238 1120,237 1121,237 1122,236 1123,236 1124,235 1125,234 1126,234 1127,233 1128,233 1129,232 1130,232 1131,231 1132,230 1133,230 1134,229 1135,229 1136,228 1137,228 1138,227 1139,226 1140,226 1141,225 1142,225 1143,224 1144,224 1145,223 1146,222 1147,222 1148,221 1149,221 1150,220 1151,220 1152,219 1153,218 1154,218 1155,217 1156,217 1157,216 1158,215 1159,215 1160,214 1161,214 1162,213 1163,213 1164,212 1165,211 1166,211 1167,210 1168,210 1169,209 1170,209 1171,208 1172,207 1173,207 1174,206 1175,206 1176,205 1177,204 1178,204 1179,203 1180,203 1181,202 1182,202 1183,201 1184,200 1185,200 1186,199 1187,199 1188,198 1189,197 1190,197 1191,196 1192,196 1193,195 1194,195 1195,194 1196,193 1197,193 1198,192 1199,192 1200,191 1201,190 1202,190 1203,189 1204,189 1205,188 1206,187 1207,187 1208,186 1209,186 1210,185 1211,185 1212,184 1213,183 1214,183 1215,182 1216,182 1217,181 1218,180 1219,180 1220,179 1221,179 1222,178 1223,177 1224,177 1225,176 1226,176 1227,175 1228,175 1229,174 1230,173 1231,173 1232,172 1233,172 1234,171 1235,170 1236,170 1237,169 1238,169 1239,168 1240,167 1241,167 1242,166 1243,166 1244,165 1245,164 1246,164 1247,163 1248,163 1249,162 1250,161 1251,161 1252,160 1253,160 1254,159 1255,159 1256,158 1257,157 1258,157 1259,156 1260,156 1261,155 1262,154 1263,154 1264,153 1265,153 1266,152 1267,151 1268,151 1269,150 1270,150 1271,149 1272,148 1273,148 1274,147 1275,147 1276,146 1277,145 1278,145 1279,144 1280,144 1281,143 1282,142 1283,142 1284,141 1285,141 1286,140 1287,139 1288,139 1289,138 1290,138 1291,137 1292,136 1293,136 1294,135 1295,135 1296,134 1297,133 1298,133 1299,132 1300,132 1301,131 1302,130 1303,130 1304,129 1305,129 1306,128 1307,127 1308,127 1309,126 1310,126 1311,125 1312,124 1313,124 1314,123 1315,123 1316,122 1317,121 1318,121 1319,120 1320,119 1321,119 1322,118 1323,118 1324,117 1325,116 1326,116 1327,115 1328,115 1329,114 1330,113 1331,113 1332,112 1333,112 1334,111 1335,110 1336,110 1337,109 1338,109 " />
  </g>
  <clipPath id="clippath8">
    <path d="M-1,-1 H1672 V908H-1 z M1277,-1 H1339 V251 H1277 z" clip-rule="evenodd" />
  </clipPath>
  <g clip-path="url(#clippath8)">
    <polyline stroke="#ff0000" stroke-width="1" stroke-linecap="round" stroke-linejoin="round" fill="none" points="258,593 259,593 260,593 261,593 262,593 263,593 264,593 265,593 266,593 267,592 268,592 269,592 270,592 271,592 272,592 273,592 274,591 275,591 276,591 277,591 278,591 279,590 280,590 281,590 282,590 283,589 284,589 285,589 286,589 287,588 288,588 289,588 290,587 291,587 292,586 293,586 294,586 295,585 296,585 297,584 298,584 299,583 300,583 301,582 302,582 303,581 304,581 305,580 306,580 307,579 308,579 309,578 310,578 311,577 312,576 313,576 314,575 315,575 316,574 317,573 318,573 319,572 320,571 321,570 322,570 323,569 324,568 325,568 326,567 327,566 328,565 329,564 330,564 331,563 332,562 333,561 334,560 335,559 336,559 337,558 338,557 339,556 340,555 341,554 342,553 343,552 344,551 345,550 346,549 347,548 348,547 349,546 350,545 351,544 352,543 353,542 354,541 355,540 356,539 357,537 358,536 359,535 360,534 361,533 362,532 363,531 364,529 365,528 366,527 367,526 368,524 369,523 370,522 371,521 372,519 373,518 374,517 375,516 376,514 377,513 378,511 379,510 380,509 381,507 382,506 383,505 384,503 385,502 386,500 387,499 388,497 389,496 390,494 391,493 392,491 393,490 394,488 395,487 396,485 397,484 398,482 399,480 400,479 401,477 402,476 403,474 404,472 405,471 406,469 407,467 408,466 409,464 410,462 411,461 412,459 413,457 414,455 415,453 416,452 417,450 418,448 419,446 420,444 421,443 422,441 423,439 424,437 425,435 426,433 427,431 428,429 429,428 430,426 431,424 432,422 433,420 434,418 435,416 436,414 437,412 438,410 439,408 440,406 441,403 442,401 443,399 444,397 445,395 446,393 447,391 448,389 449,387 450,384 451,382 452,380 453,378 454,376 455,373 456,371 457,369 458,367 459,364 460,362 461,360 462,358 463,355 464,353 465,351 466,348 467,346 468,343 469,341 470,339 471,336 472,334 473,331 474,329 475,327 476,324 477,322 478,319 479,317 480,314 481,312 482,309 483,307 484,304 485,301 486,299 487,296 488,294 489,291 490,288 491,286 492,283 493,281 494,278 495,275 496,272 497,270 498,267 499,264 500,262 501,259 502,256 503,253 504,251 505,248 506,245 507,242 508,239 509,237 510,234 511,231 512,228 513,225 514,222 515,219 516,216 517,213 518,211 519,208 520,205 521,202 522,199 523,196 524,193 525,190 526,187 527,184 528,181 529,177 530,174 531,171 532,168 533,165 534,162 535,159 536,156 537,153 538,149 539,146 540,143 541,140 542,137 543,133 544,130 545,127 546,124 547,120 548,117 549,114 550,111 551,107 552,104 553,101 554,97 555,94 556,91 557,87 558,84 559,80 560,77 561,74 562,70 563,67 564,63 565,60 566,56 567,53 568,49 569,46 570,42 571,39 572,35 573,32 574,28 575,24 576,21 577,17 578,14 579,10 580,6 581,3 582,0 582,0 " />
  </g>
  <clipPath id="clippath9">
    <path d="M-1,-1 H1672 V908H-1 z M1277,-1 H1339 V251 H1277 z" clip-rule="evenodd" />
  </clipPath>
  <g clip-path="url(#clippath9)">
    <polyline stroke="#800080" stroke-width="1" stroke-linecap="round" stroke-linejoin="round" fill="none" points="258,593 259,593 260,593 261,593 262,593 263,593 264,593 265,593 266,593 267,593 268,593 269,593 270,593 271,593 272,593 273,593 274,593 275,593 276,592 277,592 278,592 279,592 280,592 281,592 282,592 283,592 284,591 285,591 286,591 287,591 288,591 289,590 290,590 291,590 292,590 293,589 294,589 295,589 296,588 297,588 298,587 299,587 300,586 301,586 302,586 303,585 304,584 305,584 306,583 307,583 308,582 309,581 310,581 311,580 312,579 313,578 314,578 315,577 316,576 317,575 318,574 319,573 320,572 321,571 322,570 323,569 324,568 325,567 326,566 327,564 328,563 329,562 330,560 331,559 332,558 333,556 334,555 335,553 336,552 337,550 338,548 339,547 340,545 341,543 342,541 343,539 344,538 345,536 346,534 347,532 348,529 349,527 350,525 351,523 352,521 353,518 354,516 355,513 356,511 357,508 358,506 359,503 360,500 361,498 362,495 363,492 364,489 365,486 366,483 367,480 368,477 369,474 370,471 371,467 372,464 373,460 374,457 375,453 376,450 377,446 378,442 379,439 380,435 381,431 382,427 383,423 384,419 385,414 386,410 387,406 388,402 389,397 390,393 391,388 392,383 393,379 394,374 395,369 396,364 397,359 398,354 399,349 400,343 401,338 402,333 403,327 404,322 405,316 406,310 407,305 408,299 409,293 410,287 411,281 412,275 413,268 414,262 415,256 416,249 417,243 418,236 419,229 420,223 421,216 422,209 423,202 424,194 425,187 426,180 427,172 428,165 429,157 430,150 431,142 432,134 433,126 434,118 435,110 436,102 437,93 438,85 439,76 440,68 441,59 442,50 443,41 444,32 445,23 446,14 447,5 448,0 " />
  </g>
  <clipPath id="clippath10">
    <path d="M-1,-1 H1672 V908H-1 z M1277,-1 H1339 V251 H1277 z" clip-rule="evenodd" />
  </clipPath>
  <g clip-path="url(#clippath10)">
    <polyline stroke="#008080" stroke-width="1" stroke-linecap="round" stroke-linejoin="round" fill="none" points="258,569 259,569 260,569 261,568 262,568 263,568 264,568 265,567 266,567 267,567 268,566 269,566 270,566 271,566 272,565 273,565 274,565 275,564 276,564 277,564 278,563 279,563 280,563 281,562 282,562 283,562 284,561 285,561 286,561 287,560 288,560 289,560 290,559 291,559 292,559 293,558 294,558 295,558 296,557 297,557 298,556 299,556 300,556 301,555 302,555 303,554 304,554 305,554 306,553 307,553 308,552 309,552 310,551 311,551 312,550 313,550 314,550 315,549 316,549 317,548 318,548 319,547 320,547 321,546 322,546 323,545 324,545 325,544 326,544 327,543 328,543 329,542 330,542 331,541 332,540 333,540 334,539 335,539 336,538 337,538 338,537 339,536 340,536 341,535 342,534 343,534 344,533 345,533 346,532 347,531 348,531 349,530 350,529 351,529 352,528 353,527 354,526 355,526 356,525 357,524 358,524 359,523 360,522 361,521 362,521 363,520 364,519 365,518 366,517 367,517 368,516 369,515 370,514 371,513 372,512 373,512 374,511 375,510 376,509 377,508 378,507 379,506 380,505 381,504 382,503 383,502 384,501 385,500 386,499 387,498 388,497 389,496 390,495 391,494 392,493 393,492 394,491 395,490 396,489 397,488 398,487 399,485 400,484 401,483 402,482 403,481 404,480 405,478 406,477 407,476 408,475 409,473 410,472 411,471 412,470 413,468 414,467 415,465 416,464 417,463 418,461 419,460 420,458 421,457 422,456 423,454 424,453 425,451 426,450 427,448 428,447 429,445 430,443 431,442 432,440 433,438 434,437 435,435 436,433 437,432 438,430 439,428 440,426 441,425 442,423 443,421 444,419 445,417 446,415 447,414 448,412 449,410 450,408 451,406 452,404 453,402 454,400 455,398 456,395 457,393 458,391 459,389 460,387 461,385 462,382 463,380 464,378 465,376 466,373 467,371 468,369 469,366 470,364 471,361 472,359 473,356 474,354 475,351 476,348 477,346 478,343 479,341 480,338 481,335 482,332 483,330 484,327 485,324 486,321 487,318 488,315 489,312 490,309 491,306 492,303 493,300 494,297 495,294 496,290 497,287 498,284 499,280 500,277 501,274 502,270 503,267 504,263 505,260 506,256 507,253 508,249 509,245 510,242 511,238 512,234 513,230 514,226 515,222 516,218 517,214 518,210 519,206 520,202 521,198 522,193 523,189 524,185 525,180 526,176 527,172 528,167 529,162 530,158 531,153 532,148 533,144 534,139 535,134 536,129 537,124 538,119 539,114 540,109 541,104 542,98 543,93 544,88 545,82 546,77 547,71 548,66 549,60 550,54 551,49 552,43 553,37 554,31 555,25 556,19 557,13 558,6 559,0 559,0 " />
  </g>
  <clipPath id="clippath11">
    <path d="M-1,-1 H1672 V908H-1 z M1277,-1 H1339 V251 H1277 z" clip-rule="evenodd" />
  </clipPath>
  <g clip-path="url(#clippath11)">
    <polyline stroke="#000000" stroke-width="1" stroke-linecap="round" stroke-linejoin="round" fill="none" points="258,569 259,569 260,568 261,568 262,567 263,567 264,567 265,566 266,566 267,565 268,565 269,564 270,564 271,563 272,563 273,562 274,562 275,561 276,561 277,560 278,559 279,559 280,558 281,558 282,557 283,557 284,556 285,555 286,555 287,554 288,553 289,553 290,552 291,551 292,551 293,550 294,549 295,548 296,548 297,547 298,546 299,545 300,544 301,544 302,543 303,542 304,541 305,540 306,539 307,538 308,537 309,536 310,535 311,534 312,533 313,532 314,531 315,530 316,529 317,528 318,527 319,526 320,525 321,524 322,523 323,521 324,520 325,519 326,518 327,516 328,515 329,514 330,512 331,511 332,510 333,508 334,507 335,505 336,504 337,502 338,501 339,499 340,497 341,496 342,494 343,492 344,491 345,489 346,487 347,485 348,484 349,482 350,480 351,478 352,476 353,474 354,472 355,470 356,468 357,466 358,463 359,461 360,459 361,457 362,454 363,452 364,450 365,447 366,445 367,442 368,440 369,437 370,434 371,432 372,429 373,426 374,423 375,420 376,417 377,414 378,411 379,408 380,405 381,402 382,399 383,395 384,392 385,388 386,385 387,381 388,378 389,374 390,370 391,367 392,363 393,359 394,355 395,351 396,347 397,342 398,338 399,334 400,329 401,325 402,320 403,316 404,311 405,306 406,301 407,296 408,291 409,286 410,281 411,275 412,270 413,264 414,259 415,253 416,247 417,241 418,235 419,229 420,223 421,217 422,210 423,204 424,197 425,191 426,184 427,177 428,170 429,162 430,155 431,148 432,140 433,132 434,124 435,116 436,108 437,100 438,92 439,83 440,74 441,65 442,56 443,47 444,38 445,28 446,19 447,9 448,0 448,0 " />
  </g>
  <clipPath id="clippath12">
    <path d="M-1,-1 H1672 V908H-1 z M1277,-1 H1339 V251 H1277 z" clip-rule="evenodd" />
  </clipPath>
  <g clip-path="url(#clippath12)">
    <polyline stroke="#ff0000" stroke-width="1" stroke-linecap="round" stroke-linejoin="round" fill="none" points="323,569 324,569 325,569 326,569 327,568 328,568 329,568 330,568 331,568 332,568 333,567 334,567 335,567 336,567 337,566 338,566 339,566 340,566 341,565 342,565 343,565 344,565 345,564 346,564 347,564 348,564 349,563 350,563 351,563 352,562 353,562 354,562 355,561 356,561 357,561 358,560 359,560 360,560 361,559 362,559 363,558 364,558 365,558 366,557 367,557 368,556 369,556 370,555 371,555 372,554 373,554 374,553 375,553 376,552 377,552 378,551 379,551 380,550 381,550 382,549 383,548 384,548 385,547 386,547 387,546 388,545 389,545 390,544 391,543 392,542 393,542 394,541 395,540 396,539 397,538 398,538 399,537 400,536 401,535 402,534 403,533 404,532 405,531 406,530 407,529 408,528 409,527 410,526 411,525 412,524 413,523 414,522 415,521 416,519 417,518 418,517 419,516 420,514 421,513 422,511 423,510 424,509 425,507 426,506 427,504 428,503 429,501 430,499 431,498 432,496 433,494 434,492 435,491 436,489 437,487 438,485 439,483 440,481 441,479 442,476 443,474 444,472 445,470 446,467 447,465 448,463 449,460 450,458 451,455 452,452 453,449 454,447 455,444 456,441 457,438 458,435 459,432 460,428 461,425 462,422 463,418 464,415 465,411 466,407 467,404 468,400 469,396 470,392 471,387 472,383 473,379 474,374 475,370 476,365 477,360 478,355 479,350 480,345 481,340 482,334 483,329 484,323 485,317 486,311 487,305 488,299 489,293 490,286 491,279 492,273 493,265 494,258 495,251 496,243 497,235 498,227 499,219 500,211 501,202 502,193 503,184 504,175 505,166 506,156 507,146 508,136 509,125 510,114 511,103 512,92 513,80 514,68 515,56 516,44 517,31 518,18 519,4 520,0 " />
  </g>
  <clipPath id="clippath13">
    <path d="M-1,-1 H1672 V908H-1 z M1277,-1 H1339 V251 H1277 z" clip-rule="evenodd" />
  </clipPath>
  <g clip-path="url(#clippath13)">
    <polyline stroke="#9966ff" stroke-width="1" stroke-linecap="round" stroke-linejoin="round" fill="none" points="258,569 259,571 260,572 261,572 262,573 263,573 264,574 265,574 266,575 267,575 268,575 269,575 270,575 271,576 272,576 273,576 274,576 275,576 276,576 277,576 278,576 279,576 280,576 281,576 282,576 283,576 284,576 285,576 286,576 287,576 288,576 289,576 290,576 291,576 292,576 293,576 294,576 295,576 296,576 297,575 298,575 299,575 300,575 301,575 302,575 303,574 304,574 305,574 306,574 307,574 308,573 309,573 310,573 311,573 312,572 313,572 314,572 315,572 316,571 317,571 318,571 319,570 320,570 321,570 322,569 323,569 324,569 325,568 326,568 327,568 328,567 329,567 330,566 331,566 332,565 333,565 334,564 335,564 336,563 337,563 338,562 339,562 340,561 341,560 342,560 343,559 344,558 345,558 346,557 347,556 348,555 349,555 350,554 351,553 352,552 353,551 354,550 355,550 356,549 357,548 358,547 359,546 360,544 361,543 362,542 363,541 364,540 365,539 366,537 367,536 368,535 369,533 370,532 371,530 372,529 373,527 374,526 375,524 376,522 377,521 378,519 379,517 380,515 381,513 382,511 383,509 384,507 385,504 386,502 387,500 388,497 389,495 390,492 391,489 392,487 393,484 394,481 395,478 396,475 397,471 398,468 399,464 400,461 401,457 402,453 403,449 404,445 405,441 406,437 407,432 408,428 409,423 410,418 411,413 412,408 413,403 414,397 415,391 416,385 417,379 418,373 419,366 420,359 421,352 422,345 423,338 424,330 425,322 426,314 427,305 428,296 429,287 430,278 431,268 432,258 433,248 434,242 434,237 435,231 435,226 436,220 436,214 437,208 437,202 438,196 438,190 439,184 439,177 440,171 440,164 441,157 441,151 442,144 442,136 443,129 443,122 444,114 444,107 445,99 445,91 446,83 446,75 447,67 447,58 448,50 448,41 449,32 449,23 450,14 450,4 451,0 " />
  </g>
</svg>
